<svg xmlns="http://www.w3.org/2000/svg" width="37.078" height="36.151" viewBox="0 0 37.078 36.151">
  <path id="adobexd" d="M29.1.3H7.98A7.98,7.98,0,0,0,0,8.28V28.472a7.98,7.98,0,0,0,7.98,7.98H29.1a7.98,7.98,0,0,0,7.98-7.98V8.28A7.98,7.98,0,0,0,29.1.3ZM19.665,25.777H16.132c-.247,0-.423-.009-.522-.175q-.5-.971-.995-1.928-.513-.985-1.057-1.953-.565-1-1.108-2.016h-.025q-.5,1-1.032,1.99t-1.057,1.978q-.521.983-1.068,1.953c-.068.15-.184.165-.351.165H5.512c-.066,0-.1.026-.111-.04a.256.256,0,0,1,.037-.175l4.8-7.887L5.562,9.783c-.051-.066-.059-.121-.025-.165a.178.178,0,0,1,.15-.062H9.194a.556.556,0,0,1,.224.037.451.451,0,0,1,.148.137q.447,1,.995,1.99t1.106,1.965q.558.971,1.032,1.965h.025q.494-1.02,1.007-1.99t1.044-1.953q.535-.985,1.032-1.953a.38.38,0,0,1,.1-.164.369.369,0,0,1,.2-.037h3.258a.143.143,0,0,1,.125.249l0,.006-4.627,7.637,4.95,8.109a.254.254,0,0,1,.025.187c-.015.056-.073.019-.173.036Zm11.867-.649a12.39,12.39,0,0,1-2.512.746,13.333,13.333,0,0,1-2.39.224,7.734,7.734,0,0,1-3.32-.7,5.285,5.285,0,0,1-2.327-2.1,6.717,6.717,0,0,1-.847-3.519,6.492,6.492,0,0,1,.847-3.258,6.208,6.208,0,0,1,2.464-2.387,7.939,7.939,0,0,1,4.228-.884q.2.012.473.037v-4.9c0-.116.049-.175.15-.175h3.133a.133.133,0,0,1,.15.113.148.148,0,0,1,0,.037v14.7c0,.283.012.589.037.921s.046.629.062.895a.252.252,0,0,1-.148.246Zm-3.8-8.979a2.633,2.633,0,0,1,.411.074v6.79a2.525,2.525,0,0,1-.547.1q-.323.026-.647.025a4.1,4.1,0,0,1-1.282-.2,2.648,2.648,0,0,1-1.044-.621,3.048,3.048,0,0,1-.7-1.094,4.372,4.372,0,0,1-.261-1.593,3.2,3.2,0,0,1,1.815-3.11,3.841,3.841,0,0,1,1.741-.4c.171,0,.341.011.511.028Z" transform="translate(0 -0.3)" fill="#ff61f6"/>
</svg>
