<svg xmlns="http://www.w3.org/2000/svg" width="37.078" height="36.151" viewBox="0 0 37.078 36.151">
  <path id="adobeillustrator" d="M16.268,16.414c-.154-.479-.294-.942-.448-1.421s-.294-.927-.417-1.375c-.124-.433-.232-.834-.34-1.205h-.031a18.969,18.969,0,0,1-.525,1.993c-.232.742-.463,1.514-.711,2.287-.216.788-.448,1.514-.68,2.163h3.924c-.093-.326-.216-.711-.355-1.114s-.278-.864-.417-1.327ZM30.512.3H6.566A6.56,6.56,0,0,0,0,6.866V29.885a6.56,6.56,0,0,0,6.566,6.566H30.512a6.56,6.56,0,0,0,6.566-6.566V6.866A6.56,6.56,0,0,0,30.512.3Zm-7.8,25.538H19.48a.233.233,0,0,1-.246-.17l-1.267-3.677H12.22l-1.174,3.631a.273.273,0,0,1-.294.218h-2.9c-.17,0-.216-.094-.17-.278l4.975-14.323c.046-.154.093-.324.154-.51a5.4,5.4,0,0,0,.093-1,.153.153,0,0,1,.124-.17h4c.124,0,.185.046.2.124l5.639,15.913c.046.168,0,.247-.154.247Zm5.253-.232c0,.17-.06.247-.2.247h-3.03a.217.217,0,0,1-.232-.247V13.71c0-.154.063-.216.2-.216h3.059c.139,0,.2.077.2.216ZM27.64,11.655a1.822,1.822,0,0,1-1.407.541,1.918,1.918,0,0,1-1.377-.541,2.007,2.007,0,0,1-.525-1.421,1.822,1.822,0,0,1,.555-1.375,1.991,1.991,0,0,1,1.378-.541,1.85,1.85,0,0,1,1.406.541,1.95,1.95,0,0,1,.51,1.375,1.96,1.96,0,0,1-.539,1.421Z" transform="translate(0 -0.3)" fill="#ff9a00"/>
</svg>
