<svg xmlns="http://www.w3.org/2000/svg" width="45.364" height="36.151" viewBox="0 0 45.364 36.151">
  <path id="bootstrap" d="M22.247,19.077H18.819V13.335h4.068c2.212,0,3.467.987,3.467,2.771,0,1.905-1.461,2.971-4.109,2.971Zm.612,2.28H18.82v6.328h4.217c2.758,0,4.219-1.106,4.219-3.185s-1.5-3.143-4.4-3.143Zm22.5-2v2.3c-2.132.2-3.434,1.784-4.208,4.287a25.446,25.446,0,0,0-.794,7.912,4.522,4.522,0,0,1-4.417,4.725H9.423a4.52,4.52,0,0,1-4.417-4.725,25.446,25.446,0,0,0-.794-7.912c-.775-2.5-2.079-4.083-4.211-4.287v-2.3c2.132-.2,3.438-1.784,4.209-4.287A25.333,25.333,0,0,0,5,7.161,4.523,4.523,0,0,1,9.423,2.436H35.945a4.521,4.521,0,0,1,4.417,4.725,25.446,25.446,0,0,0,.794,7.912C41.93,17.576,43.232,19.156,45.364,19.361ZM30.381,24.685a4.669,4.669,0,0,0-4.476-4.7v-.108a4.3,4.3,0,0,0,3.508-4.183c0-2.905-2.293-4.8-5.788-4.8H15.762V30.121h7.9C27.857,30.121,30.381,28.069,30.381,24.685Z" transform="translate(0 -2.436)" fill="#7952b3"/>
</svg>
