<svg xmlns="http://www.w3.org/2000/svg" width="36" height="36" viewBox="0 0 36 36">
  <g id="guitar" transform="translate(-550 -2268)">
    <g id="Ellipse_9" data-name="Ellipse 9" transform="translate(550 2268)" fill="#f5f5f0" stroke="#86868b" stroke-width="0.1">
      <circle cx="18" cy="18" r="18" stroke="none"/>
      <circle cx="18" cy="18" r="17.95" fill="none"/>
    </g>
    <g id="guitar-2" data-name="guitar" transform="translate(556.811 2268)">
      <path id="Path_24" data-name="Path 24" d="M10.034,39.389h0a6.448,6.448,0,0,0,4.627-1.82,6.508,6.508,0,0,0,1.809-4.846,2.305,2.305,0,0,1,1.378-2.18,4.371,4.371,0,0,0,1.322-.908,5.181,5.181,0,0,0,1.05-5.255.454.454,0,1,0-.869.262,4.3,4.3,0,0,1-.824,4.351,3.475,3.475,0,0,1-1.049.722,3.244,3.244,0,0,0-1.914,3.03,5.608,5.608,0,0,1-1.544,4.182,5.476,5.476,0,0,1-3.983,1.552h0a9.1,9.1,0,0,1-6.3-2.829C.548,32.458-.021,27.829,2.468,25.334a5.607,5.607,0,0,1,4.259-1.548,3.241,3.241,0,0,0,3.042-1.9,3.383,3.383,0,0,1,.686-.986,4.251,4.251,0,0,1,4.348-.824.454.454,0,1,0,.266-.868,5.14,5.14,0,0,0-5.258,1.051A4.269,4.269,0,0,0,8.947,21.5a2.316,2.316,0,0,1-2.186,1.378,6.485,6.485,0,0,0-4.935,1.815c-2.842,2.849-2.27,8.052,1.268,11.6a10,10,0,0,0,6.939,3.1Z" transform="translate(-0.018 -10.329)"/>
      <path id="Path_25" data-name="Path 25" d="M9.557,20.927a.454.454,0,0,1,.64,0l.253.254a.454.454,0,1,0,.643-.642l-.251-.251a1.345,1.345,0,0,0-.966-.4h0a1.341,1.341,0,0,0-.964.4l-.244.244a1.362,1.362,0,0,0,0,1.919l2.523,2.54a1.366,1.366,0,0,0,1.933,0l.243-.243a1.37,1.37,0,0,0,0-1.924l-.993-1a.454.454,0,1,0-.642.643l.995,1a.458.458,0,0,1,0,.642l-.241.241a.47.47,0,0,1-.648,0L9.309,21.809a.454.454,0,0,1,0-.636ZM33,5.047l.062-.062a1.54,1.54,0,0,0,0-2.171L30.778.52a1.53,1.53,0,0,0-2.167,0l-.06.06L28.11.14a.454.454,0,1,0-.643.642l.443.444-.884.884-.44-.442a.454.454,0,1,0-.643.641l.5.5L25.125,4.8a.454.454,0,0,0,.057.572l.061.061-8.969,9a3.693,3.693,0,1,0,1.135,6.84.454.454,0,1,0-.45-.788,2.787,2.787,0,1,1-.646-5.121,2.736,2.736,0,0,1,1.245.722,2.829,2.829,0,0,1,.491,3.281.454.454,0,1,0,.8.423,3.675,3.675,0,0,0,.357-2.423s6.227-6.252,6.232-6.255a.454.454,0,0,0,0-.643L23.473,8.488l2.407-2.414,1.648,1.653L26.081,9.18a.454.454,0,1,0,.643.641L28.17,8.37l.059.059a.454.454,0,0,0,.574.057l1.977-1.322.5.5a.46.46,0,0,0,.642,0,.454.454,0,0,0,0-.642l-.443-.445.884-.886.441.442a.467.467,0,0,0,.642,0,.454.454,0,0,0,0-.642Zm-15.768,9.7,2.548-2.557,1.647,1.652L18.884,16.4a3.557,3.557,0,0,0-1.649-1.651Zm7.244-3.966L22.072,13.2l-1.647-1.652,2.407-2.416Zm4.132-3.261L26.086,4.989,27.38,3.041l1.492-1.5h0l.382-.383a.617.617,0,0,1,.44-.182h0a.62.62,0,0,1,.441.182l2.286,2.295a.631.631,0,0,1,0,.889l-.38.381h0l-1.494,1.5Z" transform="translate(-4.525 -0.006)"/>
    </g>
  </g>
</svg>
