<svg xmlns="http://www.w3.org/2000/svg" width="36.151" height="36.151" viewBox="0 0 36.151 36.151">
  <path id="javascript" d="M0,0H36.151V36.151H0ZM33.19,27.529c-.264-1.649-1.338-3.035-4.523-4.328-1.109-.52-2.341-.881-2.707-1.717a1.779,1.779,0,0,1-.069-1.062,1.727,1.727,0,0,1,2.282-.994,2.45,2.45,0,0,1,1.47,1.356c1.558-1.018,1.558-1.018,2.644-1.695a6.217,6.217,0,0,0-.883-1.175,5.059,5.059,0,0,0-4.269-1.558l-1.062.134A4.856,4.856,0,0,0,23.5,18a4.726,4.726,0,0,0,.857,6.735c2.056,1.536,5.063,1.874,5.447,3.321.362,1.762-1.31,2.327-2.961,2.124A3.966,3.966,0,0,1,24.2,28.172l-2.757,1.583a6.091,6.091,0,0,0,1.22,1.67c2.621,2.645,9.173,2.51,10.35-1.512a5.1,5.1,0,0,0,.111-2.485l.069.1ZM19.659,16.616H16.273c0,2.919-.014,5.82-.014,8.744,0,1.856.095,3.559-.208,4.084-.5,1.038-1.777.905-2.359.723a2.906,2.906,0,0,1-1.25-1.288,1.292,1.292,0,0,0-.191-.3L9.5,30.278A5.328,5.328,0,0,0,11.5,32.563a6.629,6.629,0,0,0,4.831.61,4.231,4.231,0,0,0,2.728-2.125c.768-1.4.606-3.118.6-5.04.018-3.094,0-6.189,0-9.307l.006-.084Z" fill="#f7df1e"/>
</svg>
