<svg xmlns="http://www.w3.org/2000/svg" width="36.14" height="36.151" viewBox="0 0 36.14 36.151">
  <g id="Layer_1" data-name="Layer 1" transform="translate(-2.019 -1.956)">
    <path id="Path_26" data-name="Path 26" d="M48.261,4.215V29.521a1.2,1.2,0,0,1-1.205,1.205H30.185a1.209,1.209,0,0,1-1.205-1.205V4.215A1.209,1.209,0,0,1,30.185,3.01H47.056A1.2,1.2,0,0,1,48.261,4.215Z" transform="translate(-10.716 -0.419)" fill="#06c"/>
    <path id="Path_27" data-name="Path 27" d="M46.453,3.01V28.316a1.2,1.2,0,0,1-1.205,1.205H28.98V4.215A1.209,1.209,0,0,1,30.185,3.01Z" transform="translate(-10.716 -0.419)" fill="#86868b" opacity="0.2"/>
    <path id="Path_28" data-name="Path 28" d="M16.948,8.724A5.723,5.723,0,0,1,6.753,12.3s0,.006-.006,0A5.728,5.728,0,0,1,11.224,3a5.626,5.626,0,0,1,1.97.349A5.718,5.718,0,0,1,16.948,8.724Z" transform="translate(-1.384 -0.415)" fill="#fff"/>
    <path id="Path_29" data-name="Path 29" d="M25.444,22.523l-7.983,3.29H15.05V43.286a1.209,1.209,0,0,1-1.205,1.205H12.64a1.209,1.209,0,0,1-1.205-1.205V33.712a1.329,1.329,0,0,0-.593-1.1,1.218,1.218,0,0,0-1.223,0,1.315,1.315,0,0,0-.593,1.1v9.574A1.209,1.209,0,0,1,7.82,44.491H6.615A1.209,1.209,0,0,1,5.41,43.286v-9.64H4.205A1.209,1.209,0,0,1,3,32.441V23.4A1.209,1.209,0,0,1,4.205,22.2H8.591l1.94,2.995,1.94-2.995h4.989l6.429-2.476.44-.169a1.586,1.586,0,1,1,1.115,2.971Z" transform="translate(-0.39 -6.954)" fill="#fff"/>
    <path id="Path_30" data-name="Path 30" d="M13.448,6.913A5.747,5.747,0,0,1,5.76,12.287,5.734,5.734,0,0,1,12.2,3.34a5.694,5.694,0,0,1,1.247,3.573Zm10.442,6.26a1.656,1.656,0,0,1-.952,1l-7.983,3.29h-2.41V34.936a1.209,1.209,0,0,1-1.205,1.205H10.134a1.211,1.211,0,0,1-1.205-1.205V25.362a1.206,1.206,0,1,0-2.41,0v9.574a1.2,1.2,0,0,1-1.109,1.2V27.1H4.205A1.209,1.209,0,0,1,3,25.892V16.854a1.209,1.209,0,0,1,1.205-1.205H8.591l1.94,2.995,1.94-2.995h4.989Z" transform="translate(-0.39 -0.405)" fill="#86868b" opacity="0.2"/>
    <path id="Path_31" data-name="Path 31" d="M36.351,1.956H19.481a1.81,1.81,0,0,0-1.808,1.808V14.338l-.7.27H12.095a.6.6,0,0,0-.506.275L10.153,17.1,8.718,14.883a.6.6,0,0,0-.506-.275H3.827a1.81,1.81,0,0,0-1.808,1.808v9.038a1.81,1.81,0,0,0,1.808,1.808h.591c.016.57.011,8.227.011,9.038a1.81,1.81,0,0,0,1.808,1.808H7.442A1.81,1.81,0,0,0,9.249,36.3V26.723a.728.728,0,0,1,.349-.614,3,3,0,0,1-.323-.5l.336.508a.615.615,0,0,1,.843.611V36.3a1.81,1.81,0,0,0,1.808,1.808h1.205A1.81,1.81,0,0,0,15.275,36.3V19.429h1.808a1.977,1.977,0,0,0,.591-.194v9.835a1.81,1.81,0,0,0,1.808,1.808H36.351a1.81,1.81,0,0,0,1.808-1.808V3.763a1.81,1.81,0,0,0-1.808-1.808ZM16.963,18.224H14.672a.6.6,0,0,0-.6.6V36.3a.6.6,0,0,1-.6.6H12.262a.6.6,0,0,1-.6-.6V26.723a1.808,1.808,0,1,0-3.615,0V36.3a.6.6,0,0,1-.6.6H6.237a.6.6,0,0,1-.6-.6c.015-4.157-.019-12.77-.011-16.871a.6.6,0,0,0-1.205,0v6.628H3.827a.6.6,0,0,1-.6-.6V16.416a.6.6,0,0,1,.6-.6H7.884l1.763,2.72a.6.6,0,0,0,1.011,0l1.763-2.72h4.66c.958-.252,6.042-2.317,7.088-2.682a.979.979,0,0,1,1.28,1.215,1.089,1.089,0,0,1-.615.636ZM36.954,29.069a.6.6,0,0,1-.6.6H19.481a.6.6,0,0,1-.6-.6V18.738L25.293,16.1a2.3,2.3,0,0,0,1.291-1.346,2.194,2.194,0,0,0-2.847-2.745l-4.859,1.869V3.763a.6.6,0,0,1,.6-.6H36.351a.6.6,0,0,1,.6.6Z" fill="#383f40"/>
    <path id="Path_32" data-name="Path 32" d="M10.845,14.62A6.326,6.326,0,1,0,4.519,8.294a6.334,6.334,0,0,0,6.326,6.326Zm0-11.448A5.121,5.121,0,1,1,5.724,8.294a5.127,5.127,0,0,1,5.121-5.121Z" transform="translate(-0.994 -0.018)" fill="#383f40"/>
  </g>
</svg>
