<svg xmlns="http://www.w3.org/2000/svg" width="109.539" height="95.847" viewBox="0 0 109.539 95.847">
  <path id="quote" d="M99.27,32H71.885A10.272,10.272,0,0,0,61.616,42.269V69.654A10.272,10.272,0,0,0,71.885,79.923H89V93.616a13.705,13.705,0,0,1-13.692,13.692H73.6a5.122,5.122,0,0,0-5.135,5.135v10.269a5.122,5.122,0,0,0,5.135,5.135h1.712a34.222,34.222,0,0,0,34.231-34.231V42.269A10.272,10.272,0,0,0,99.27,32ZM37.654,32H10.269A10.272,10.272,0,0,0,0,42.269V69.654A10.272,10.272,0,0,0,10.269,79.923H27.385V93.616a13.705,13.705,0,0,1-13.692,13.692H11.981a5.122,5.122,0,0,0-5.135,5.135v10.269a5.122,5.122,0,0,0,5.135,5.135h1.712A34.222,34.222,0,0,0,47.923,93.616V42.269A10.272,10.272,0,0,0,37.654,32Z" transform="translate(0 -32)" fill="#06c"/>
</svg>
