<svg xmlns="http://www.w3.org/2000/svg" width="40.591" height="36.151" viewBox="0 0 40.591 36.151">
  <path id="react" d="M24.067,19.394a3.781,3.781,0,1,1-3.782-3.782A3.782,3.782,0,0,1,24.067,19.394Zm4.479-18.08c-2.276,0-5.255,1.624-8.267,4.435-3.01-2.8-5.991-4.4-8.265-4.4a3.716,3.716,0,0,0-1.871.47C7.817,3.159,7.3,7.338,8.5,12.583,3.349,14.173,0,16.715,0,19.394s3.366,5.238,8.529,6.816C7.339,31.475,7.87,35.661,10.2,37a3.632,3.632,0,0,0,1.864.465c2.275,0,5.255-1.624,8.267-4.438,3.01,2.8,5.991,4.4,8.265,4.4a3.713,3.713,0,0,0,1.871-.465c2.324-1.34,2.846-5.519,1.646-10.765,5.13-1.576,8.478-4.123,8.478-6.806s-3.366-5.238-8.529-6.819c1.191-5.26.66-9.449-1.671-10.79a3.666,3.666,0,0,0-1.847-.47Zm-.008,1.844v.01a1.923,1.923,0,0,1,.944.215c1.126.646,1.615,3.1,1.235,6.265-.091.778-.24,1.6-.423,2.435a39.7,39.7,0,0,0-5.255-.9A40.408,40.408,0,0,0,21.6,7.041c2.693-2.5,5.221-3.876,6.943-3.882Zm-16.524.034c1.712,0,4.252,1.367,6.951,3.856a38.89,38.89,0,0,0-3.416,4.13,38.443,38.443,0,0,0-5.265.91c-.189-.829-.33-1.63-.43-2.4-.389-3.159.091-5.615,1.208-6.27a2.477,2.477,0,0,1,.952-.223ZM20.27,8.35a33.626,33.626,0,0,1,2.3,2.645c-.744-.034-1.505-.058-2.275-.058s-1.548.017-2.3.058A32.131,32.131,0,0,1,20.27,8.348Zm.025,4.441c1.252,0,2.5.058,3.724.157q1.03,1.476,2,3.146.944,1.624,1.722,3.291c-.521,1.108-1.093,2.216-1.713,3.3-.643,1.116-1.307,2.178-2,3.163-1.231.107-2.479.166-3.738.166s-2.5-.059-3.724-.157c-.687-.984-1.356-2.036-2-3.146q-.944-1.624-1.722-3.291c.512-1.111,1.093-2.221,1.713-3.3.643-1.116,1.307-2.175,2-3.159,1.231-.108,2.479-.166,3.738-.166Zm-6.148.43c-.406.638-.812,1.29-1.191,1.962s-.736,1.323-1.074,1.986c-.448-1.109-.829-2.216-1.143-3.293,1.082-.254,2.224-.479,3.408-.653Zm12.279,0c1.175.174,2.309.389,3.393.655-.3,1.069-.685,2.168-1.116,3.269-.338-.66-.693-1.324-1.082-1.986s-.786-1.309-1.192-1.938Zm5.18,1.142c.819.254,1.6.536,2.326.842,2.929,1.252,4.824,2.889,4.824,4.188s-1.9,2.943-4.832,4.186c-.71.3-1.488.578-2.292.834a40.534,40.534,0,0,0-1.86-5.04,39.379,39.379,0,0,0,1.835-5.013Zm-22.655.007a39.454,39.454,0,0,0,1.86,5.04,39.14,39.14,0,0,0-1.837,5.013,24.011,24.011,0,0,1-2.317-.846c-2.929-1.246-4.824-2.885-4.824-4.184S3.729,16.446,6.659,15.2C7.369,14.9,8.147,14.626,8.952,14.369ZM28.7,21.608c.448,1.111.829,2.219,1.143,3.295-1.082.266-2.226.49-3.41.66.406-.634.812-1.289,1.192-1.959s.736-1.333,1.076-2Zm-16.82.034c.338.663.693,1.324,1.082,1.987s.786,1.306,1.192,1.933c-1.175-.173-2.309-.389-3.393-.653.3-1.066.687-2.168,1.116-3.269Zm18.425,5.052a23.364,23.364,0,0,1,.43,2.407c.389,3.159-.091,5.615-1.208,6.271a1.813,1.813,0,0,1-.952.216c-1.712,0-4.252-1.365-6.951-3.856a39.01,39.01,0,0,0,3.416-4.127,38.69,38.69,0,0,0,5.265-.913ZM10.3,26.71a40.278,40.278,0,0,0,5.255.9A40.2,40.2,0,0,0,19,31.747c-2.7,2.508-5.229,3.882-6.951,3.882a2,2,0,0,1-.935-.223c-1.126-.643-1.615-3.1-1.235-6.263.091-.778.24-1.6.423-2.432Zm7.712,1.082c.744.034,1.505.058,2.275.058s1.548-.017,2.3-.058a32.414,32.414,0,0,1-2.275,2.647A34.286,34.286,0,0,1,18.012,27.793Z" transform="translate(0 -1.314)" fill="#61dafb"/>
</svg>
