<svg xmlns="http://www.w3.org/2000/svg" width="36.151" height="36.151" viewBox="0 0 36.151 36.151">
  <path id="sass" d="M18.076,0A18.076,18.076,0,1,1,0,18.076,18.076,18.076,0,0,1,18.076,0ZM14.483,24.1a4.62,4.62,0,0,1-.036,2.7l-.1.271c-.036.092-.078.181-.117.265a5.067,5.067,0,0,1-.836,1.22c-1.051,1.143-2.519,1.577-3.148,1.213-.678-.395-.34-2.011.88-3.3a12.3,12.3,0,0,1,3.193-2.273v0ZM29.412,7.738C28.6,4.525,23.271,3.469,18.232,5.26a25.323,25.323,0,0,0-8.575,4.921c-2.776,2.592-3.217,4.852-3.035,5.8.643,3.33,5.207,5.509,7.084,7.125v.009c-.553.271-4.6,2.3-5.552,4.406-1.017,2.214.158,3.8.926,4A5.711,5.711,0,0,0,15.2,29.033a6.248,6.248,0,0,0,.609-5.537,7.028,7.028,0,0,1,2.757-.157c3.165.362,3.8,2.35,3.66,3.163a2.172,2.172,0,0,1-1.015,1.422c-.226.137-.294.181-.273.273.023.136.137.136.316.113a2.506,2.506,0,0,0,1.719-2.216c.068-1.943-1.786-4.111-5.084-4.067a8.147,8.147,0,0,0-2.824.386.546.546,0,0,0-.158-.158c-2.034-2.192-5.807-3.728-5.649-6.643.045-1.062.429-3.862,7.23-7.251,5.581-2.781,10.034-2.011,10.8-.316,1.1,2.416-2.374,6.914-8.181,7.568a4.358,4.358,0,0,1-3.662-.926c-.315-.339-.36-.362-.473-.292-.181.09-.068.384,0,.565a3.478,3.478,0,0,0,2.1,1.649,11.107,11.107,0,0,0,6.778-.678c3.5-1.354,6.235-5.129,5.444-8.292l.11.1Z" fill="#c69"/>
</svg>
