<svg xmlns="http://www.w3.org/2000/svg" width="113.149" height="283.629" viewBox="0 0 113.149 283.629">
  <path id="Shadow_Red" data-name="Shadow Red" d="M807.666,754.713v-3.775l2.908-4.51-.681-11.058-.314-7.809v-8.333l-.262-8.175v-5.188l2.411-3.983,2.1-1.31L813.194,698l-1.939-6.079-1.31-5.4v-4.664l1.625-2.516-.524-3.93.21-1.363.314-3.406-3.3-3.144,1.363-3.511-.419-2.935-1.205-4.035-.891-3.04,2.044-6.027,1.153-4.35,1.1-5.136.419-4.3H815.6l1.258-1.1-.576-3.3.576-1.677,3.616-2.411.367-.943-1.939-2.463-2.044-1.048,2.044-3.668-2.044-2.882-3.511-.839,1.782-4.3V604.93l.681-2.725-1.31-2.358-.419-4.088,1.258-3.2v-4.926l-2.83-5.345-.576-4.035-.576-2.882-.943-4.455-1.991-4.088-.734-6.76-1.834-4.979-6.184-5.607-4.245-3.459-3.616-2.306-3.511-1.048-4.507-.786-6.236-1.415-4.088-1.048-4.3-2.358h-3.564v-3.144l-5.5-5.188.576-7.966s1.625,1.153,2.516.262a37.027,37.027,0,0,0,2.568-3.249l.839-2.568.367-2.882v-1.52l-1-1.939-1.782-1.258-1.31-.576.629-5.974v-4.35l-.629-3.878-.734-2.987-1-2.778v-1.153l1-1.258,2.778,1.258,2.253.367h1.625l-2.411-2.306v-1.1l-1.991-1.258L763.2,481.3l1.205-1.572-2.253-.576L763.722,478H765.4l-4.612-2.044-2.83,1-2.62-.734-.839-.262,4.3-4.035-1.887-.839-2.62,2.987-2.1,1.52-2.463-.629L748,475.59l-2.149-1.258s-3.721-.157-3.931.314-3.93,0-3.93,0l-3.249.314-2.83,1-3.354.681-2.411,1.467-1.625,1.677-2.463,1.834-2.149,2.463-1.467,2.62-1.048,2.725V493.3l.734,2.882.314,4.3.314,3.721.367,3.406.576,2.673.314.891s-1.782,1.729-1.572,2.306a12.165,12.165,0,0,1,.314,2.149l.681,2.1.576,1.991.367,1.677,1.1,1.363s2.1,1,2.463.786,1.363,2.673,1.363,2.673l1.153,2.149,2.306,2.044,1.834.786h.524L735,544.558l-3.04,3.93-2.306,3.826L728.3,554.1l-3.406,1.991-3.564,2.987-3.773,2.2-4.664,4.245a36.892,36.892,0,0,0-2.725,3.983,34.356,34.356,0,0,1-1.939,3.564l-.524,5.66.524,7.022.314,3.3a6.381,6.381,0,0,1,.524,2.935c-.262,1.048-.839,4.193-.839,4.193s-.576,5.136-.524,5.345.524,5.817.524,5.817v6.184l.681,6.446,1.467,3.3-.629,5.083,1.415,3.878-1.939,3.93v3.406l.839,2.568v1.572l-.839,3.721,2.2,1.205-.975,9.077v25.753l-.341,5.723-1.158,5.042,1.158,4.5v11.514l-.954,6.336v3.406l3.475,4.224,1.294,5.723,7.9,5.587h5.042L726.592,733l-2.112-2.044,3.679-2.93,2.385,8.652,2.384,6.4,2.248,6.132,1.839,5.382Z" transform="translate(-707.696 -471.083)" fill="rgba(251,1,2,0.5)"/>
</svg>
