<svg xmlns="http://www.w3.org/2000/svg" width="37" height="36" viewBox="0 0 37 36">
  <g id="singing" transform="translate(-584.909 -2354.697)">
    <rect id="Rectangle_7" data-name="Rectangle 7" width="37" height="36" rx="8" transform="translate(584.909 2354.697)" fill="#3c437a"/>
    <path id="mic" d="M30.444,6.275A6.581,6.581,0,0,0,25.591,1.3,7.4,7.4,0,0,0,18.548,3.03a5.947,5.947,0,0,0-1.474,6.525L15,13.068l-.308.492h0L9.858,21.581a1.779,1.779,0,0,0,.641,2.494l.167.094-.833.574L9.6,24.9a2.509,2.509,0,0,1-1.769.668,1.638,1.638,0,0,1-1.282-1.1,10,10,0,0,1-.461-3.513V20.9a2.609,2.609,0,0,0-1-2.19A3.579,3.579,0,0,0,2.346,18.4a5.772,5.772,0,0,1-.961.105c0-.082-.192-.609,1.077-3.2a.543.543,0,0,0-.039-.605.667.667,0,0,0-.605-.249.634.634,0,0,0-.522.374C.1,17.389-.14,18.56.424,19.2s1.41.468,2.192.351,1.359-.211,1.718.059A1.72,1.72,0,0,1,4.756,20.9v.141A10.764,10.764,0,0,0,5.295,24.9a2.844,2.844,0,0,0,2.359,1.862h.385a4.033,4.033,0,0,0,2.32-.913l.218-.152c.41-.269.795-.55,1.192-.831h0a2.208,2.208,0,0,0,2.807-.445l6.281-7.19.41-.457,2.692-3.08A7.179,7.179,0,0,0,29.264,11.1a6.008,6.008,0,0,0,1.179-4.825ZM13.562,23.748a.79.79,0,0,1-1.025.152l-1.282-.808a.666.666,0,0,1-.231-.937l4.563-7.612A14.1,14.1,0,0,0,17.459,15.9a15.744,15.744,0,0,0,2.1,1.054Zm6.781-7.741a13.267,13.267,0,0,1-2.218-1.077,12.259,12.259,0,0,1-1.936-1.452l1.718-2.811a10.267,10.267,0,0,0,4.653,2.846Zm8.024-5.738a1.887,1.887,0,0,1-.141.2,5.889,5.889,0,0,1-4.512,2.12A8.876,8.876,0,0,1,18.343,9.32h0a4.828,4.828,0,0,1,.538-4.813h0a10.992,10.992,0,0,0,4,3.911,12.223,12.223,0,0,0,5.486,1.862Zm.6-1.171h0A10.162,10.162,0,0,1,23.6,7.411a9.044,9.044,0,0,1-3.769-3.9h0a6.129,6.129,0,0,1,6.96-.457A5.115,5.115,0,0,1,29.175,6.5a4.826,4.826,0,0,1-.205,2.623Z" transform="translate(588.031 2358.8)" fill="#fff"/>
  </g>
</svg>
