<svg xmlns="http://www.w3.org/2000/svg" width="39.694" height="23.816" viewBox="0 0 39.694 23.816">
  <path id="tailwindcss" d="M19.848,4.8q-7.939,0-9.923,7.939Q12.9,8.769,16.871,9.762a8.456,8.456,0,0,1,3.784,2.686c1.947,1.975,4.2,4.26,9.116,4.26q7.939,0,9.923-7.939-2.977,3.969-6.946,2.977A8.456,8.456,0,0,1,28.964,9.06C27.019,7.086,24.768,4.8,19.848,4.8ZM9.924,16.708q-7.939,0-9.923,7.939,2.977-3.969,6.946-2.977a8.456,8.456,0,0,1,3.784,2.686c1.947,1.975,4.2,4.26,9.116,4.26q7.939,0,9.923-7.939-2.977,3.969-6.946,2.977a8.456,8.456,0,0,1-3.784-2.686C17.1,18.994,14.845,16.708,9.924,16.708Z" transform="translate(-0.001 -4.8)" fill="#38b2ac"/>
</svg>
