<svg xmlns="http://www.w3.org/2000/svg" xmlns:xlink="http://www.w3.org/1999/xlink" width="255.842" height="269.137" viewBox="0 0 255.842 269.137">
  <defs>
    <linearGradient id="linear-gradient" x1="0.5" x2="0.5" y2="1" gradientUnits="objectBoundingBox">
      <stop offset="0" stop-color="#ff0057"/>
      <stop offset="1" stop-color="#e60000"/>
    </linearGradient>
    <clipPath id="clip-path">
      <path id="Path_7" data-name="Path 7" d="M1112.6,345.363l19.521-2.005V309.97Z" transform="translate(-1112.6 -309.97)" fill="none"/>
    </clipPath>
  </defs>
  <g id="TN-logo" transform="translate(-123.296 -250.346)">
    <g id="Path_4" data-name="Path 4" transform="translate(141.468 297.841)">
      <path id="Path_1" data-name="Path 1" d="M111.363,220.227a109.678,109.678,0,0,1-21.941-2.217A108.858,108.858,0,0,1,4.712,133.3a109.939,109.939,0,0,1,0-43.885,108.843,108.843,0,0,1,84.7-84.7,109.939,109.939,0,0,1,43.885,0,108.858,108.858,0,0,1,84.712,84.712,109.949,109.949,0,0,1,0,43.885A108.858,108.858,0,0,1,133.3,218.022,109.669,109.669,0,0,1,111.363,220.227Z" transform="translate(-2.5 -0.55)" fill="rgba(255,255,255,0)"/>
      <path id="Path_2" data-name="Path 2" d="M107.337,3.92A107.712,107.712,0,0,0,85.75,6.086,106.835,106.835,0,0,0,2.6,89.234a107.983,107.983,0,0,0,0,43.113A106.811,106.811,0,0,0,85.75,215.556a107.994,107.994,0,0,0,43.113,0,106.926,106.926,0,0,0,83.209-83.209,107.993,107.993,0,0,0,0-43.113A106.949,106.949,0,0,0,128.863,6.086,107.714,107.714,0,0,0,107.337,3.92m0-3.92c61.2,0,128.808,53.691,128.808,114.9s-67.608,106.74-128.808,106.74A107.542,107.542,0,0,1,.436,110.821,107.542,107.542,0,0,1,107.337,0Z" transform="translate(1.525)" fill="#f5f5f7"/>
    </g>
    <g id="Path_3" data-name="Path 3" transform="translate(123.296 403.077) rotate(-20.972)">
      <path id="Path_3-2" data-name="Path 3" d="M23.773,96.253a14.037,14.037,0,0,1-9.154-3.72,32.084,32.084,0,0,1-7.6-10.257A64.169,64.169,0,0,1,1.9,66.946,91.481,91.481,0,0,1,0,48.126,91.481,91.481,0,0,1,1.9,29.327a64.169,64.169,0,0,1,5.123-15.29,32.084,32.084,0,0,1,7.6-10.317A14.037,14.037,0,0,1,23.773,0a14.037,14.037,0,0,1,9.154,3.72,32.084,32.084,0,0,1,7.59,10.317,64.168,64.168,0,0,1,5.144,15.33,91.48,91.48,0,0,1,1.895,18.759A91.48,91.48,0,0,1,45.66,66.936a64.169,64.169,0,0,1-5.144,15.33,32.084,32.084,0,0,1-7.58,10.277,14.037,14.037,0,0,1-9.164,3.71Z" transform="translate(0.391 0.391)" fill="url(#linear-gradient)"/>
      <path id="Path_4-2" data-name="Path 4" d="M24.163.782a13.676,13.676,0,0,0-8.893,3.63A31.693,31.693,0,0,0,7.78,14.558,63.737,63.737,0,0,0,2.667,29.8,91.089,91.089,0,0,0,.782,48.527,91.089,91.089,0,0,0,2.667,67.257,63.738,63.738,0,0,0,7.78,82.5a31.693,31.693,0,0,0,7.49,10.147,13.676,13.676,0,0,0,8.893,3.609,13.676,13.676,0,0,0,8.923-3.609,31.693,31.693,0,0,0,7.49-10.157,63.737,63.737,0,0,0,5.113-15.24,91.089,91.089,0,0,0,1.865-18.719A91.089,91.089,0,0,0,45.67,29.8a63.737,63.737,0,0,0-5.113-15.24,31.693,31.693,0,0,0-7.47-10.147A13.676,13.676,0,0,0,24.163.782m0-.782C37.509,0,48.327,21.727,48.327,48.527S37.519,97.055,24.163,97.055,0,75.328,0,48.527,10.818,0,24.163,0Z" fill="#f9f9f9"/>
    </g>
    <g id="Path_6" data-name="Path 6" transform="translate(304.392 365.423) rotate(30)">
      <path id="Path_5" data-name="Path 5" d="M34.852,130.011A21.637,21.637,0,0,1,21.377,125a36.5,36.5,0,0,1-5.926-5.966,53.221,53.221,0,0,1-5.174-7.931,82.115,82.115,0,0,1-7.52-20.684A114.37,114.37,0,0,1,0,65,114.37,114.37,0,0,1,2.758,39.634a82.107,82.107,0,0,1,7.52-20.684,53.23,53.23,0,0,1,5.174-7.921,36.476,36.476,0,0,1,5.926-6.016A21.637,21.637,0,0,1,34.852,0,21.637,21.637,0,0,1,48.328,5.013a36.475,36.475,0,0,1,5.926,5.966,53.23,53.23,0,0,1,5.174,7.931,82.106,82.106,0,0,1,7.52,20.684A114.371,114.371,0,0,1,69.7,64.961a114.371,114.371,0,0,1-2.757,25.367,82.115,82.115,0,0,1-7.52,20.684,53.22,53.22,0,0,1-5.174,7.931,36.5,36.5,0,0,1-5.926,5.966A21.637,21.637,0,0,1,34.852,130.011Z" transform="translate(0.39 0.431)" fill="url(#linear-gradient)"/>
      <path id="Path_6-2" data-name="Path 6" d="M35.243.822A21.256,21.256,0,0,0,22.008,5.835a36.1,36.1,0,0,0-5.855,5.906,52.84,52.84,0,0,0-5.144,7.871,81.725,81.725,0,0,0-7.48,20.534A113.97,113.97,0,0,0,.782,65.432,113.98,113.98,0,0,0,3.529,90.718a81.724,81.724,0,0,0,7.5,20.614,52.86,52.86,0,0,0,5.144,7.871,36.1,36.1,0,0,0,5.855,5.906,21.256,21.256,0,0,0,13.235,5.013A21.256,21.256,0,0,0,48.5,125.109a36.1,36.1,0,0,0,5.855-5.906,52.859,52.859,0,0,0,5.144-7.871,81.724,81.724,0,0,0,7.48-20.594,113.98,113.98,0,0,0,2.747-25.276,113.98,113.98,0,0,0-2.767-25.317,81.725,81.725,0,0,0-7.48-20.594,52.839,52.839,0,0,0-5.144-7.871A36.1,36.1,0,0,0,48.477,5.8,21.256,21.256,0,0,0,35.243.782m0-.782C54.7.04,70.485,29.317,70.485,65.432S54.7,130.824,35.243,130.824,0,101.557,0,65.432,15.781.04,35.243.04Z" transform="translate(0 0)" fill="url(#linear-gradient)"/>
    </g>
    <g id="Mask_Group_1" data-name="Mask Group 1" transform="translate(231.119 264.623)" clip-path="url(#clip-path)">
      <path id="Path_2-2" data-name="Path 2" d="M36.416,0,0,65.793H36.416Z" transform="translate(-17.205 0.321)" fill="#f5f5f7"/>
    </g>
    <path id="Path_8" data-name="Path 8" d="M1211.931,351.611l-31.393-68.881v53.139Z" transform="translate(-896.96 -32.384)" fill="#f5f5f7"/>
  </g>
</svg>
